<svg width="800" height="800" viewBox="0 0 800 800" fill="none" xmlns="http://www.w3.org/2000/svg">
<path fill-rule="evenodd" clip-rule="evenodd" d="M400 0C179.086 0 0 179.086 0 400C0 620.914 179.086 800 400 800C620.914 800 800 620.914 800 400C800 179.086 620.914 0 400 0ZM400 10C184.609 10 10 184.609 10 400C10 615.391 184.609 790 400 790C292.304 790 205 682.304 205 600C205 492.3 292.304 400 400 400C507.7 400 600 292.304 600 200C600 92.304 507.7 10 400 10ZM400 665C435.895 665 465 635.895 465 600C465 564.105 435.895 535 400 535C364.105 535 335 564.105 335 600C335 635.895 364.105 665 400 665ZM400 132C362.445 132 332 162.445 332 200C332 237.555 362.445 268 400 268C437.555 268 468 237.555 468 200C468 162.445 437.555 132 400 132Z" fill="#673AB7"/>
</svg>
